<?xml version="1.0" encoding="UTF-8"?>
<svg width="512" height="512" viewBox="0 0 512 512" xmlns="http://www.w3.org/2000/svg">
    <defs>
        <linearGradient id="gradient2" x1="0%" y1="0%" x2="100%" y2="100%">
            <stop offset="0%" style="stop-color:#10B981;stop-opacity:1" />
            <stop offset="50%" style="stop-color:#06B6D4;stop-opacity:1" />
            <stop offset="100%" style="stop-color:#6366F1;stop-opacity:1" />
        </linearGradient>
        <pattern id="dots" patternUnits="userSpaceOnUse" width="40" height="40">
            <circle cx="20" cy="20" r="2" fill="rgba(255,255,255,0.1)"/>
        </pattern>
    </defs>
    
    <!-- Background with pattern -->
    <rect width="512" height="512" fill="url(#gradient2)"/>
    <rect width="512" height="512" fill="url(#dots)"/>
    
    <!-- Mountain-like shapes -->
    <polygon points="0,512 150,200 300,320 512,180 512,512" fill="rgba(255,255,255,0.15)"/>
    <polygon points="0,512 100,250 250,350 400,220 512,280 512,512" fill="rgba(255,255,255,0.1)"/>
    
    <!-- Sun/moon -->
    <circle cx="400" cy="120" r="45" fill="rgba(255,255,255,0.3)"/>
    <circle cx="400" cy="120" r="35" fill="rgba(255,255,255,0.2)"/>
    
    <!-- Stars/sparkles -->
    <g fill="rgba(255,255,255,0.4)">
        <circle cx="100" cy="80" r="1.5"/>
        <circle cx="180" cy="60" r="1"/>
        <circle cx="320" cy="70" r="1.5"/>
        <circle cx="150" cy="120" r="1"/>
        <circle cx="480" cy="90" r="1.5"/>
    </g>
    
    <!-- Abstract tree shapes -->
    <g fill="rgba(255,255,255,0.2)">
        <ellipse cx="80" cy="400" rx="15" ry="60"/>
        <ellipse cx="80" cy="350" rx="25" ry="25"/>
        
        <ellipse cx="450" cy="380" rx="12" ry="50"/>
        <ellipse cx="450" cy="340" rx="20" ry="20"/>
    </g>
    
    <!-- Flowing lines -->
    <path d="M 0,300 Q 128,280 256,300 T 512,300" stroke="rgba(255,255,255,0.2)" stroke-width="2" fill="none"/>
    <path d="M 0,350 Q 128,330 256,350 T 512,350" stroke="rgba(255,255,255,0.15)" stroke-width="1.5" fill="none"/>
    
    <!-- Caption -->
    <text x="256" y="480" text-anchor="middle" fill="rgba(255,255,255,0.7)" font-family="Arial, sans-serif" font-size="16" font-weight="400">
        Landscape Dreams
    </text>
</svg>
